<?xml version="1.0" encoding="UTF-8" standalone="no"?>
<!-- Created with Inkscape (http://www.inkscape.org/) -->

<svg
   xmlns:dc="http://purl.org/dc/elements/1.1/"
   xmlns:cc="http://creativecommons.org/ns#"
   xmlns:rdf="http://www.w3.org/1999/02/22-rdf-syntax-ns#"
   xmlns:svg="http://www.w3.org/2000/svg"
   xmlns="http://www.w3.org/2000/svg"
   xmlns:sodipodi="http://sodipodi.sourceforge.net/DTD/sodipodi-0.dtd"
   xmlns:inkscape="http://www.inkscape.org/namespaces/inkscape"
   width="381.05203"
   height="239.5448"
   id="svg2"
   version="1.1"
   inkscape:version="0.48.4 r9939"
   sodipodi:docname="Nuovo documento 1">
  <defs
     id="defs4" />
  <sodipodi:namedview
     id="base"
     pagecolor="#ffffff"
     bordercolor="#666666"
     borderopacity="1.0"
     inkscape:pageopacity="0.0"
     inkscape:pageshadow="2"
     inkscape:zoom="0.78"
     inkscape:cx="255.06393"
     inkscape:cy="124.66685"
     inkscape:document-units="px"
     inkscape:current-layer="layer1"
     showgrid="false"
     fit-margin-top="0"
     fit-margin-left="0"
     fit-margin-right="0"
     fit-margin-bottom="0"
     inkscape:window-width="1920"
     inkscape:window-height="1014"
     inkscape:window-x="0"
     inkscape:window-y="27"
     inkscape:window-maximized="1" />
  <metadata
     id="metadata7">
    <rdf:RDF>
      <cc:Work
         rdf:about="">
        <dc:format>image/svg+xml</dc:format>
        <dc:type
           rdf:resource="http://purl.org/dc/dcmitype/StillImage" />
        <dc:title></dc:title>
      </cc:Work>
    </rdf:RDF>
  </metadata>
  <g
     inkscape:label="Livello 1"
     inkscape:groupmode="layer"
     id="layer1"
     style="display:inline"
     transform="translate(-116.98331,-312.11317)">
    <path
       style="fill:#40281b;fill-opacity:1;stroke:none"
       d="m 256.98592,551.65796 c 0,0 -30.49496,-25.09597 -40.78874,-41.5493 -7.79715,-12.46279 -14.78873,-41.54929 -14.78873,-41.54929 0,0 -66.72557,11.95943 -80.98591,-11.26761 -16.23548,-26.44412 30.28169,-88.02817 30.28169,-88.02817 0,0 -6.19771,-17.48475 -2.11268,-24.64789 3.48478,-6.1106 11.98038,-9.2556 19.01408,-9.15493 7.66345,0.10968 16.6379,3.89876 20.42254,10.56338 3.83227,6.74849 3.08984,16.91538 -1.40845,23.23944 -3.53762,4.97347 -16.90141,7.04225 -16.90141,7.04225 l -7.29577,41.5493 c 0,0 20.47536,-8.67507 30.28169,-5.6338 6.6586,2.06506 14.78873,16.78873 14.78873,16.78873 0,0 12.72596,-9.12872 18.19718,-8.8169 4.1529,0.23668 17.97183,7.52113 17.97183,7.52113 0,0 9.15712,-4.84614 14.08451,-6.33803 4.09983,-1.24133 12.67606,-2.11268 12.67606,-2.11268 l 6.33802,-14.78873 c 0,0 -14.156,-27.01979 -13.38028,-41.5493 0.73955,-13.8519 7.02752,-28.28505 16.90141,-38.02817 7.63513,-7.53401 18.87744,-11.92365 29.57746,-12.67605 11.64478,-0.81883 23.83057,3.08651 33.80282,9.15493 6.52881,3.97298 15.49296,16.90141 15.49296,16.90141 l 4.22535,18.30985 c 0,0 12.21681,17.13981 9.15493,25.70423 -1.3375,3.74115 -10.21126,6.14788 -10.21126,6.14788 0,0 -4.82311,13.77213 -10.21127,18.14789 -3.63074,2.94854 -8.70635,4.39984 -13.38029,4.22536 -5.05297,-0.18863 -14.0845,-5.63381 -14.0845,-5.63381 l 0.70422,14.78874 c 0,0 12.54506,3.42588 18.30986,6.33802 4.06825,2.05511 11.26761,7.74648 11.26761,7.74648 0,0 -1.28813,1.2611 4.67184,-0.55138 5.95997,-1.81247 16.29597,-8.26509 27.82527,-8.0932 6.93505,0.1034 22.58067,16.88936 22.58067,16.88936 0,0 9.51351,-14.26907 20.54278,-13.90249 11.12369,0.36971 22.26676,13.40419 22.26676,13.40419 l 14.08451,-46.47887 c 0,0 -13.65434,-10.23969 -13.38028,-17.60563 0.30297,-8.14298 8.12819,-17.17351 16.19718,-18.30986 9.09226,-1.28045 23.23944,14.78873 23.23944,14.78873 l -1.40845,26.76056 c 0,0 18.36196,76.34305 -6.70423,96.50704 -22.99616,18.4988 -84.01398,-16.949 -84.01398,-16.949 0,0 -2.80039,26.71245 -9.63391,36.82224 -9.41052,13.92231 -37.02817,34.21127 -37.02817,34.21127 z"
       id="path2985"
       inkscape:connector-curvature="0"
       sodipodi:nodetypes="cscscssssccscscsccssssccscssccscsscsccssccscscc" />
    <path
       style="fill:#614932;fill-opacity:1;stroke:none"
       d="m 195.20295,462.69429 13.28413,11.43911 -4.42804,-9.5941 z"
       id="path3789"
       inkscape:connector-curvature="0" />
    <path
       style="fill:#614932;fill-opacity:1;stroke:none"
       d="m 394.83395,484.0965 12.17712,-8.48708 -8.48708,2.58302 z"
       id="path3791"
       inkscape:connector-curvature="0" />
    <path
       style="fill:#614932;fill-opacity:1;stroke:none"
       d="m 415.12915,459.00425 c 0,0 17.92891,11.73637 27.67528,10.3321 4.86976,-0.70164 11.80812,-8.85609 11.80812,-8.85609 0,0 -4.76389,13.46397 -10.70111,14.76015 -10.76183,2.34945 -28.78229,-16.23616 -28.78229,-16.23616 z"
       id="path3793"
       inkscape:connector-curvature="0"
       sodipodi:nodetypes="cscsc" />
    <path
       style="fill:#614932;fill-opacity:1;stroke:none"
       d="m 163.83764,430.59096 c 0,0 6.10028,8.52496 10.3321,11.43912 5.32404,3.66629 11.63116,7.44042 18.08118,7.01107 2.80136,-0.18648 5.02121,-2.5365 7.38008,-4.05904 2.06688,-1.33407 5.90406,-4.42805 5.90406,-4.42805 0,0 -6.72252,3.08082 -10.33211,3.32104 -6.2351,0.41495 -12.73824,-0.78678 -18.45018,-3.32104 -4.96995,-2.20506 -12.91513,-9.9631 -12.91513,-9.9631 z"
       id="path3795"
       inkscape:connector-curvature="0"
       sodipodi:nodetypes="cssscssc" />
  </g>
  <g
     inkscape:groupmode="layer"
     id="layer3"
     inkscape:label="Livello#1"
     transform="translate(-116.98331,-312.11317)">
    <path
       style="fill:#614932;fill-opacity:1;stroke:none"
       d="m 225.45455,475.08946 11.81818,21.81818 56.45454,3.18182 3.63637,-1.18182 -55.54546,-6.09091 z"
       id="path3781"
       inkscape:connector-curvature="0"
       sodipodi:nodetypes="cccccc" />
    <path
       style="fill:#614932;fill-opacity:1;stroke:none"
       d="m 314.72727,500.90764 1.63637,1 52.72727,1.81818 12.72727,-14.54546 -13.63636,9.54546 z"
       id="path3783"
       inkscape:connector-curvature="0"
       sodipodi:nodetypes="cccccc" />
    <path
       style="fill:#614932;fill-opacity:1;stroke:none"
       d="m 268.18182,441.90764 27.72727,10.90909 6.36364,6.36363 -3.63637,-9.54545 z"
       id="path3785"
       inkscape:connector-curvature="0" />
    <path
       style="fill:#614932;fill-opacity:1;stroke:none"
       d="m 310,458.27127 2.27273,-7.27272 22.72727,-6.36364 -20,8.63636 z"
       id="path3787"
       inkscape:connector-curvature="0" />
  </g>
  <g
     inkscape:groupmode="layer"
     id="layer2"
     inkscape:label="Livello"
     style="display:inline"
     transform="translate(-116.98331,-312.11317)">
    <path
       style="fill:#000000;fill-opacity:1;stroke:none;display:inline"
       d="m 250.78125,424.1875 c -3.75097,1.73672 -7.125,3.53125 -7.125,3.53125 0,0 -1.05684,-0.42938 -2.40625,-0.9375 -3.00459,13.98496 -8.58103,35.59704 -16.375,47.0625 -3.73277,5.49115 -10.15363,11.89842 -16.75,17.78125 2.36236,6.89856 5.15571,13.8226 8.0625,18.46875 10.29378,16.45333 40.8125,41.5625 40.8125,41.5625 l 97.15625,-0.125 c 0,0 27.62073,-20.26519 37.03125,-34.1875 1.04966,-1.55292 2.09425,-3.45584 3.09375,-5.53125 -6.96181,-6.39517 -17.24716,-16.81322 -21.28125,-26 -5.52655,-12.58555 -9.18944,-39.86435 -11.58967,-53.2611 -2.83904,0.65148 -6.47283,1.5111 -6.47283,1.5111 0,0 -1.95418,-1.49803 -4.375,-3.25 1.56116,13.3591 5.10286,53.34648 -6.1875,70.84375 -7.9737,12.35727 -24.04362,21.1922 -38.75,21.125 -16.39314,-0.0749 -33.74463,-10.3643 -42.9375,-23.9375 -11.85441,-17.50293 -12.4852,-54.99469 -11.90625,-74.65625 z"
       id="path3758"
       inkscape:connector-curvature="0"
       sodipodi:nodetypes="cccscsccscscccsssc" />
  </g>
</svg>
